<svg width="32" height="33" viewBox="0 0 32 33" fill="none" xmlns="http://www.w3.org/2000/svg">
<path d="M24 2.5V4.5H26V10.5C26 11.5609 25.5786 12.5783 24.8284 13.3284C24.0783 14.0786 23.0609 14.5 22 14.5C20.9391 14.5 19.9217 14.0786 19.1716 13.3284C18.4214 12.5783 18 11.5609 18 10.5V4.5H20V2.5H16V10.5C16.0025 11.9166 16.5056 13.2867 17.4206 14.3682C18.3355 15.4497 19.6034 16.1729 21 16.41V22.5C21 24.0913 20.3679 25.6174 19.2426 26.7426C18.1174 27.8679 16.5913 28.5 15 28.5C13.4087 28.5 11.8826 27.8679 10.7574 26.7426C9.63214 25.6174 9 24.0913 9 22.5V16.3579C9.94266 16.1145 10.7642 15.5357 11.3106 14.7299C11.857 13.9241 12.0908 12.9467 11.9681 11.9809C11.8454 11.0151 11.3747 10.1272 10.6442 9.48358C9.91373 8.83999 8.97358 8.48492 8 8.48492C7.02643 8.48492 6.08628 8.83999 5.35577 9.48358C4.62526 10.1272 4.15456 11.0151 4.03188 11.9809C3.90921 12.9467 4.14299 13.9241 4.6894 14.7299C5.23581 15.5357 6.05734 16.1145 7 16.3579V22.5C7 24.6217 7.84286 26.6566 9.34315 28.1569C10.8434 29.6571 12.8783 30.5 15 30.5C17.1217 30.5 19.1566 29.6571 20.6569 28.1569C22.1571 26.6566 23 24.6217 23 22.5V16.41C24.3966 16.1729 25.6645 15.4497 26.5794 14.3682C27.4944 13.2867 27.9976 11.9166 28 10.5V2.5H24ZM6 12.5C6 12.1044 6.1173 11.7178 6.33706 11.3889C6.55683 11.06 6.86918 10.8036 7.23463 10.6522C7.60009 10.5009 8.00222 10.4613 8.39018 10.5384C8.77814 10.6156 9.13451 10.8061 9.41422 11.0858C9.69392 11.3655 9.8844 11.7219 9.96157 12.1098C10.0387 12.4978 9.99914 12.8999 9.84776 13.2654C9.69639 13.6308 9.44004 13.9432 9.11114 14.1629C8.78224 14.3827 8.39556 14.5 8 14.5C7.46976 14.4994 6.9614 14.2885 6.58646 13.9135C6.21152 13.5386 6.00061 13.0302 6 12.5V12.5Z" fill="#4DA0CE"/>
</svg>
